<svg width="46" height="49" viewBox="0 0 46 49" fill="none" xmlns="http://www.w3.org/2000/svg">
<path fill-rule="evenodd" clip-rule="evenodd" d="M15.1954 44.9492C10.8589 43.7711 6.3187 43.1768 1.9144 42.6324C0.965787 42.5182 0.0850602 43.1552 0.0173018 44.0525C-0.118215 44.9505 0.559766 45.7717 1.44062 45.8858C5.7094 46.4099 10.1133 46.9708 14.2466 48.1049C15.1274 48.3509 16.0764 47.8445 16.3475 46.9734C16.6185 46.103 16.0763 45.1958 15.1954 44.9492Z" fill="#3B3B45"/>
<path fill-rule="evenodd" clip-rule="evenodd" d="M28.3357 28.2475C21.3566 21.3529 13.4966 15.3457 6.65302 8.26616C6.04319 7.60497 4.95906 7.56954 4.28147 8.18679C3.60389 8.80468 3.5364 9.84369 4.21398 10.5049C11.0576 17.6048 18.9175 23.6316 25.8967 30.5465C26.5742 31.192 27.6581 31.2012 28.3357 30.5662C28.9455 29.9319 29.0133 28.8929 28.3357 28.2475Z" fill="#EEB2AA"/>
<path fill-rule="evenodd" clip-rule="evenodd" d="M41.4223 1.72891C41.6255 5.67505 41.8284 9.6212 42.0317 13.568C42.0317 14.4719 42.8452 15.1698 43.7938 15.1259C44.7424 15.0813 45.4196 14.3118 45.4196 13.4073C45.2163 9.45459 45.0134 5.50254 44.8102 1.55049C44.7424 0.6466 43.9292 -0.0467314 42.9806 0.00246426C42.0997 0.0516599 41.3545 0.825674 41.4223 1.72891Z" fill="#3B3B45"/>
</svg>
