<svg width="49" height="49" viewBox="0 0 49 49" fill="none" xmlns="http://www.w3.org/2000/svg">
<path d="M7.625 47V35.75M7.625 13.25V2M2 7.625H13.25M2 41.375H13.25M26.75 4.25L22.8481 14.3949C22.2136 16.0447 21.8963 16.8696 21.4029 17.5634C20.9657 18.1784 20.4284 18.7157 19.8134 19.1529C19.1196 19.6463 18.2947 19.9636 16.6449 20.5981L6.5 24.5L16.6449 28.4019C18.2947 29.0364 19.1196 29.3537 19.8134 29.8471C20.4284 30.2843 20.9657 30.8216 21.4029 31.4366C21.8963 32.1304 22.2136 32.9553 22.8481 34.6051L26.75 44.75L30.6519 34.6051C31.2864 32.9553 31.6037 32.1304 32.0971 31.4366C32.5343 30.8216 33.0716 30.2843 33.6866 29.8471C34.3804 29.3537 35.2053 29.0364 36.8551 28.4019L47 24.5L36.8551 20.5981C35.2053 19.9636 34.3804 19.6463 33.6866 19.1529C33.0716 18.7157 32.5343 18.1784 32.0971 17.5634C31.6037 16.8696 31.2864 16.0447 30.6519 14.3949L26.75 4.25Z" stroke="white" stroke-width="2.5" stroke-linecap="round" stroke-linejoin="round"/>
</svg>
